<?xml version="1.0" standalone="no"?>
<!DOCTYPE svg PUBLIC "-//W3C//DTD SVG 20010904//EN"
 "http://www.w3.org/TR/2001/REC-SVG-20010904/DTD/svg10.dtd">
<svg version="1.0" xmlns="http://www.w3.org/2000/svg"
 width="260.000000pt" height="260.000000pt" viewBox="0 0 260.000000 260.000000"
 preserveAspectRatio="xMidYMid meet">
<metadata>
Created by potrace 1.11, written by Peter Selinger 2001-2013
</metadata>
<g transform="translate(0.000000,260.000000) scale(0.100000,-0.100000)"
fill="#000000" stroke="none">
<path d="M320 1305 l0 -1215 160 0 160 0 0 575 0 575 75 0 75 0 0 -470 0 -470
481 2 480 3 0 450 c0 248 3 458 5 468 4 14 17 17 75 17 l69 0 0 -575 0 -575
160 0 160 0 0 1215 0 1215 -160 0 -160 0 0 -500 0 -500 -74 0 -75 0 -1 198 c0
136 -5 212 -14 243 -56 186 -213 328 -395 359 -232 39 -473 -125 -537 -365 -9
-33 -14 -114 -14 -242 l0 -193 -76 0 -76 0 3 500 4 500 -162 0 -163 0 0 -1215z
m1002 940 c2 -3 -4 -51 -14 -107 -10 -57 -21 -124 -25 -150 -6 -52 -23 -66
-23 -20 -1 15 -11 82 -24 150 -12 67 -20 124 -18 127 7 6 97 7 104 0z m-127
-27 c11 -49 53 -283 50 -286 -1 -1 -37 58 -80 133 -43 74 -76 138 -73 140 5 5
79 33 90 34 4 1 10 -9 13 -21z m208 6 c26 -9 47 -19 47 -22 0 -10 -151 -272
-156 -272 -3 0 -3 8 0 18 3 9 15 71 26 137 20 116 29 155 34 155 1 0 23 -7 49
-16z m-259 -166 c42 -72 75 -132 74 -134 -3 -2 -46 34 -213 174 l-29 24 39 34
c22 19 43 34 47 34 3 0 40 -59 82 -132z m381 98 l39 -34 -34 -28 c-19 -16 -73
-61 -119 -101 -47 -39 -87 -71 -88 -69 -5 5 148 266 155 266 4 0 25 -15 47
-34z m-440 -153 c63 -53 113 -98 112 -100 -4 -3 -280 97 -289 105 -8 8 42 92
54 92 4 0 60 -44 123 -97z m527 54 c15 -23 24 -45 20 -49 -9 -9 -285 -108
-289 -104 -4 4 227 196 236 196 3 0 18 -19 33 -43z m-497 -149 c33 -12 64 -25
70 -29 5 -5 -60 -9 -152 -9 -89 0 -164 4 -167 9 -3 5 1 31 9 59 l16 51 82 -30
c45 -17 109 -40 142 -51z m557 -4 l3 -29 -164 -3 c-91 -1 -162 1 -158 4 4 4
71 31 150 60 l142 52 12 -28 c6 -15 13 -40 15 -56z m-422 -229 l0 -155 -185 0
-185 0 0 155 0 155 185 0 185 0 0 -155z m410 0 l0 -155 -185 0 -185 0 0 155 0
155 185 0 185 0 0 -155z m-410 -490 l0 -55 -185 0 -185 0 0 55 0 55 185 0 185
0 0 -55z m410 0 l0 -55 -185 0 -185 0 0 55 0 55 185 0 185 0 0 -55z m-410
-260 l0 -175 -185 0 -185 0 0 175 0 175 185 0 185 0 0 -175z m410 0 l0 -175
-185 0 -185 0 0 175 0 175 185 0 185 0 0 -175z m-410 -360 l0 -155 -185 0
-185 0 0 155 0 155 185 0 185 0 0 -155z m410 0 l0 -155 -185 0 -185 0 0 155 0
155 185 0 185 0 0 -155z"/>
<path d="M730 225 l0 -55 539 0 539 0 4 51 c1 28 1 53 -1 55 -2 2 -247 4 -543
4 l-538 0 0 -55z"/>
</g>
</svg>
